<svg width="36" height="36" viewBox="0 0 36 36" fill="none" xmlns="http://www.w3.org/2000/svg">
<path d="M8.325 26.4375C9.9 25.4375 11.4563 24.6813 12.9938 24.1688C14.5313 23.6563 16.2 23.4 18 23.4C19.8 23.4 21.475 23.6563 23.025 24.1688C24.575 24.6813 26.1375 25.4375 27.7125 26.4375C28.8125 25.0875 29.5938 23.725 30.0563 22.35C30.5188 20.975 30.75 19.525 30.75 18C30.75 14.375 29.5313 11.3438 27.0938 8.90625C24.6563 6.46875 21.625 5.25 18 5.25C14.375 5.25 11.3438 6.46875 8.90625 8.90625C6.46875 11.3438 5.25 14.375 5.25 18C5.25 19.525 5.4875 20.975 5.9625 22.35C6.4375 23.725 7.225 25.0875 8.325 26.4375ZM17.993 19.125C16.5477 19.125 15.3313 18.6289 14.3438 17.6368C13.3563 16.6446 12.8625 15.4259 12.8625 13.9805C12.8625 12.5352 13.3586 11.3188 14.3507 10.3313C15.3429 9.34375 16.5616 8.85 18.007 8.85C19.4523 8.85 20.6688 9.34608 21.6563 10.3382C22.6438 11.3304 23.1375 12.5491 23.1375 13.9945C23.1375 15.4398 22.6414 16.6563 21.6493 17.6438C20.6571 18.6313 19.4384 19.125 17.993 19.125ZM17.9848 33C15.9062 33 13.9527 32.6063 12.1245 31.8188C10.2963 31.0313 8.70596 29.9563 7.35356 28.5938C6.00119 27.2313 4.9375 25.6395 4.1625 23.8185C3.3875 21.9975 3 20.0517 3 17.9813C3 15.9108 3.39375 13.965 4.18125 12.144C4.96875 10.323 6.04375 8.7375 7.40625 7.3875C8.76875 6.0375 10.3605 4.96875 12.1815 4.18125C14.0025 3.39375 15.9483 3 18.0188 3C20.0892 3 22.035 3.39375 23.856 4.18125C25.677 4.96875 27.2625 6.0375 28.6125 7.3875C29.9625 8.7375 31.0313 10.325 31.8188 12.15C32.6063 13.975 33 15.9217 33 17.99C33 20.0584 32.6063 22.0021 31.8188 23.8213C31.0313 25.6404 29.9625 27.2313 28.6125 28.5938C27.2625 29.9563 25.6734 31.0313 23.8452 31.8188C22.0169 32.6063 20.0635 33 17.9848 33Z" fill="white"/>
</svg>
