<svg width="24" height="24" viewBox="0 0 24 24" fill="none" xmlns="http://www.w3.org/2000/svg">
<path fill-rule="evenodd" clip-rule="evenodd" d="M1 11.5C2.73 7.11 7 4 12 4C17 4 21.27 7.11 23 11.5C21.27 15.89 17 19 12 19C7 19 2.73 15.89 1 11.5ZM7 11.5C7 14.26 9.24 16.5 12 16.5C14.76 16.5 17 14.26 17 11.5C17 11.0092 16.9292 10.5348 16.7972 10.0866C16.3619 11.2063 15.2736 12 14 12C12.3431 12 11 10.6569 11 9C11 7.96324 11.5259 7.04932 12.3255 6.51044C12.2179 6.50352 12.1094 6.5 12 6.5C9.24 6.5 7 8.74 7 11.5Z" fill="#7F7F7F"/>
</svg>
