<svg width="24" height="24" viewBox="0 0 24 24" fill="none" xmlns="http://www.w3.org/2000/svg">
<path d="M12 15.575C13.1333 15.575 14.0956 15.179 14.887 14.387C15.679 13.5957 16.075 12.6333 16.075 11.5C16.075 10.3667 15.679 9.40433 14.887 8.613C14.0956 7.821 13.1333 7.425 12 7.425C10.8666 7.425 9.90428 7.821 9.11295 8.613C8.32095 9.40433 7.92495 10.3667 7.92495 11.5C7.92495 12.6333 8.32095 13.5957 9.11295 14.387C9.90428 15.179 10.8666 15.575 12 15.575ZM12 14.2C11.25 14.2 10.6126 13.9373 10.088 13.412C9.56262 12.8873 9.29995 12.25 9.29995 11.5C9.29995 10.75 9.56262 10.1123 10.088 9.587C10.6126 9.06233 11.25 8.8 12 8.8C12.75 8.8 13.3876 9.06233 13.913 9.587C14.4376 10.1123 14.7 10.75 14.7 11.5C14.7 12.25 14.4376 12.8873 13.913 13.412C13.3876 13.9373 12.75 14.2 12 14.2ZM12 18.5C9.81662 18.5 7.81228 17.925 5.98695 16.775C4.16228 15.625 2.76662 14.0667 1.79995 12.1C1.76662 12.0333 1.74162 11.9457 1.72495 11.837C1.70828 11.729 1.69995 11.6167 1.69995 11.5C1.69995 11.3833 1.70828 11.2707 1.72495 11.162C1.74162 11.054 1.76662 10.9667 1.79995 10.9C2.76662 8.93333 4.16228 7.375 5.98695 6.225C7.81228 5.075 9.81662 4.5 12 4.5C14.1833 4.5 16.1873 5.075 18.0119 6.225C19.8373 7.375 21.2333 8.93333 22.2 10.9C22.2333 10.9667 22.2583 11.054 22.275 11.162C22.2916 11.2707 22.2999 11.3833 22.2999 11.5C22.2999 11.6167 22.2916 11.729 22.275 11.837C22.2583 11.9457 22.2333 12.0333 22.2 12.1C21.2333 14.0667 19.8373 15.625 18.0119 16.775C16.1873 17.925 14.1833 18.5 12 18.5ZM12 17C13.8833 17 15.6126 16.504 17.188 15.512C18.7626 14.5207 19.9666 13.1833 20.7999 11.5C19.9666 9.81667 18.7626 8.479 17.188 7.487C15.6126 6.49567 13.8833 6 12 6C10.1166 6 8.38728 6.49567 6.81195 7.487C5.23728 8.479 4.03328 9.81667 3.19995 11.5C4.03328 13.1833 5.23728 14.5207 6.81195 15.512C8.38728 16.504 10.1166 17 12 17Z" fill="black"/>
</svg>