<svg width="24" height="37" viewBox="0 0 24 37" fill="none" xmlns="http://www.w3.org/2000/svg">
<path d="M10.4078 0.0886443C10.2178 -0.0456177 9.97338 -0.0248248 9.80299 0.133794C9.63259 0.29182 9.57652 0.55262 9.66416 0.777777L10.0202 1.67781C12.0247 6.73937 13.4102 10.2367 10.3452 15.0185C10.4138 10.9371 8.82525 7.68989 5.60622 5.34684C5.42874 5.21852 5.1952 5.22387 5.02208 5.35991C4.85005 5.49774 4.77438 5.73834 4.83263 5.9635C5.56321 8.75745 4.49074 10.7619 3.13301 13.301C1.73772 15.912 0.0010888 19.1598 0 24.1875C0 24.1875 0 24.1875 0 24.1887V24.1899C0 24.1899 0 24.1899 0 24.191C0.00217759 31.2475 5.25998 36.9887 11.7258 36.9964C11.7296 36.9976 11.7334 37 11.7383 37C18.2107 37 23.4766 31.2529 23.4766 24.1905C23.4766 14.4992 18.8356 5.93914 10.4078 0.0886443ZM11.7465 35.8849C11.7438 35.8849 11.7416 35.8825 11.7383 35.8825C5.82833 35.8825 1.02129 30.6374 1.0202 24.1875C1.0202 19.461 2.61094 16.4858 4.0144 13.8612C5.21588 11.6162 6.27801 9.62719 6.06623 7.10473C8.70276 9.49411 9.72568 12.6629 9.19163 16.7502C9.15951 16.9944 9.27873 17.2338 9.48615 17.3354C9.69356 17.4399 9.93582 17.3781 10.085 17.1904C14.6285 11.4059 13.3721 7.37978 11.2886 2.07465C18.5063 7.66257 22.4564 15.4539 22.4564 24.1887C22.4564 30.6356 17.6521 35.8796 11.7465 35.8849Z" fill="#FF847C"/>
<path d="M16.842 24.1888C17.4058 24.1888 17.8628 23.4408 17.8628 22.5182C17.8628 21.5956 17.4058 20.8477 16.842 20.8477C16.2783 20.8477 15.8213 21.5956 15.8213 22.5182C15.8213 23.4408 16.2783 24.1888 16.842 24.1888Z" fill="#FF847C"/>
<path d="M7.14465 27.5309C7.14465 27.8386 7.3733 28.0881 7.6553 28.0881H12.2489V29.7587C12.2489 30.9866 13.1641 31.9865 14.2904 31.9865C15.4168 31.9865 16.3319 30.9866 16.3319 29.7587V27.5309C16.3319 27.2231 16.1033 26.9736 15.8213 26.9736H7.6553C7.3733 26.9736 7.14465 27.2231 7.14465 27.5309ZM13.2691 28.0881H15.3106V29.7587C15.3106 30.3736 14.8522 30.8726 14.2899 30.8726C13.7275 30.8726 13.2691 30.3736 13.2691 29.7587V28.0881Z" fill="#FF847C"/>
<path d="M8.67607 22.5182C8.67607 22.2105 8.44742 21.9609 8.16542 21.9609H6.12393C5.84193 21.9609 5.61328 22.2105 5.61328 22.5182C5.61328 22.8259 5.84193 23.0754 6.12393 23.0754H8.16542C8.44742 23.0754 8.67607 22.8259 8.67607 22.5182Z" fill="#FF847C"/>
</svg>
