<svg width="166" height="37" viewBox="0 0 166 37" fill="none" xmlns="http://www.w3.org/2000/svg">
<g clip-path="url(#clip0_2317_5268)">
<path d="M10.4078 0.0886443C10.2178 -0.0456177 9.97338 -0.0248248 9.80299 0.133794C9.63259 0.29182 9.57652 0.55262 9.66416 0.777777L10.0202 1.67781C12.0247 6.73937 13.4102 10.2367 10.3452 15.0185C10.4138 10.9371 8.82525 7.68989 5.60622 5.34684C5.42874 5.21852 5.1952 5.22387 5.02208 5.35991C4.85005 5.49774 4.77438 5.73834 4.83263 5.9635C5.56321 8.75745 4.49074 10.7619 3.13301 13.301C1.73772 15.912 0.0010888 19.1598 0 24.1875C0 24.1875 0 24.1875 0 24.1887V24.1899C0 24.1899 0 24.1899 0 24.191C0.00217759 31.2475 5.25998 36.9887 11.7258 36.9964C11.7296 36.9976 11.7334 37 11.7383 37C18.2107 37 23.4766 31.2529 23.4766 24.1905C23.4766 14.4992 18.8356 5.93914 10.4078 0.0886443ZM11.7465 35.8849C11.7438 35.8849 11.7416 35.8825 11.7383 35.8825C5.82833 35.8825 1.02129 30.6374 1.0202 24.1875C1.0202 19.461 2.61094 16.4858 4.0144 13.8612C5.21588 11.6162 6.27801 9.62719 6.06623 7.10473C8.70276 9.49411 9.72568 12.6629 9.19163 16.7502C9.15951 16.9944 9.27873 17.2338 9.48615 17.3354C9.69356 17.4399 9.93582 17.3781 10.085 17.1904C14.6285 11.4059 13.3721 7.37978 11.2886 2.07465C18.5063 7.66257 22.4564 15.4539 22.4564 24.1887C22.4564 30.6356 17.6521 35.8796 11.7465 35.8849Z" fill="#FF847C"/>
<path d="M16.842 24.1888C17.4058 24.1888 17.8628 23.4408 17.8628 22.5182C17.8628 21.5956 17.4058 20.8477 16.842 20.8477C16.2783 20.8477 15.8213 21.5956 15.8213 22.5182C15.8213 23.4408 16.2783 24.1888 16.842 24.1888Z" fill="#FF847C"/>
<path d="M7.14465 27.5309C7.14465 27.8386 7.3733 28.0881 7.6553 28.0881H12.2489V29.7587C12.2489 30.9866 13.1641 31.9865 14.2904 31.9865C15.4168 31.9865 16.3319 30.9866 16.3319 29.7587V27.5309C16.3319 27.2231 16.1033 26.9736 15.8213 26.9736H7.6553C7.3733 26.9736 7.14465 27.2231 7.14465 27.5309ZM13.2691 28.0881H15.3106V29.7587C15.3106 30.3736 14.8522 30.8726 14.2899 30.8726C13.7275 30.8726 13.2691 30.3736 13.2691 29.7587V28.0881Z" fill="#FF847C"/>
<path d="M8.67607 22.5182C8.67607 22.2105 8.44742 21.9609 8.16542 21.9609H6.12393C5.84193 21.9609 5.61328 22.2105 5.61328 22.5182C5.61328 22.8259 5.84193 23.0754 6.12393 23.0754H8.16542C8.44742 23.0754 8.67607 22.8259 8.67607 22.5182Z" fill="#FF847C"/>
<path d="M38.7491 24.6597C36.3824 24.6597 34.5308 23.3399 34.5308 20.3742V12.7239H36.7706V20.0402C36.7706 21.8325 37.6441 22.5006 38.7491 22.5006C39.8615 22.5006 40.7425 21.8244 40.7425 20.0402V12.7239H42.9823V20.3742C42.9823 23.3399 41.1233 24.6597 38.7491 24.6597ZM49.07 24.6597C46.7033 24.6597 44.8517 23.3399 44.8517 20.3742V12.7239H47.0915V20.0402C47.0915 21.8325 47.965 22.5006 49.07 22.5006C50.1824 22.5006 51.0634 21.8244 51.0634 20.0402V12.7239H53.3032V20.3742C53.3032 23.3399 51.4442 24.6597 49.07 24.6597ZM67.7602 24.4968H65.5279L64.8187 15.6241L62.0861 24.4968H60.6377L57.9052 15.6241L57.1884 24.4968H54.9486L55.852 12.7241H59.0474L61.347 20.1137L63.6764 12.7241H66.8718L67.7602 24.4968ZM75.8864 14.8749H71.8846V17.5472H75.4309V19.6736H71.8846V22.3379H75.8864V24.4969H69.6298V12.7243H75.8864V14.8749ZM83.9749 12.7241V14.875H81.4141V24.4968H79.1967V14.875H76.6209V12.7241H83.9749ZM91.4513 14.8749H87.4495V17.5472H90.9959V19.6736H87.4495V22.3379H91.4513V24.4969H85.1948V12.7243H91.4513V14.8749ZM98.0614 24.6597C94.8884 24.6597 92.544 22.297 92.544 18.6062C92.544 14.9073 94.8884 12.5608 98.0614 12.5608C101.227 12.5608 103.571 14.9073 103.571 18.6062C103.571 22.2969 101.227 24.6597 98.0614 24.6597ZM98.0614 22.4192C99.9204 22.4192 101.346 20.9934 101.346 18.6063C101.346 16.2272 99.9205 14.8096 98.0614 14.8096C96.2023 14.8096 94.7764 16.2272 94.7764 18.6063C94.7764 20.9934 96.2023 22.4192 98.0614 22.4192ZM108.741 24.6597C106.426 24.6597 104.619 23.4457 104.291 21.2378L106.605 20.6593C106.755 21.9792 107.643 22.6635 108.83 22.6635C109.741 22.6635 110.465 22.2236 110.458 21.2296C110.45 20.1215 109.256 19.7712 107.942 19.3312C106.359 18.7935 104.664 18.158 104.664 15.9908C104.664 13.7991 106.307 12.5608 108.472 12.5608C110.368 12.5608 112.28 13.4 112.713 15.6568L110.548 16.2434C110.346 15.0701 109.622 14.5569 108.606 14.5569C107.703 14.5569 106.934 14.9642 106.934 15.9338C106.934 16.8381 107.994 17.1396 109.219 17.5388C110.846 18.0765 112.772 18.7608 112.772 21.1073C112.772 23.6085 110.854 24.6597 108.741 24.6597ZM120.622 12.7241V14.875H118.061V24.4968H115.844V14.875H113.268V12.7241H120.622ZM129.062 24.4968L128.278 22.0688H123.746L122.962 24.4968H120.67L124.642 12.7241H127.382L131.354 24.4968H129.062ZM124.403 20.0239H127.621L126.015 15.0296L124.403 20.0239ZM138.755 12.7241V14.875H136.195V24.4968H133.977V14.875H131.401V12.7241H138.755ZM139.975 24.4968V12.7241H142.215V24.4968H139.975ZM149.303 24.6597C146.13 24.6597 143.786 22.297 143.786 18.6062C143.786 14.9073 146.13 12.5608 149.303 12.5608C152.469 12.5608 154.813 14.9073 154.813 18.6062C154.813 22.2969 152.469 24.6597 149.303 24.6597ZM149.303 22.4192C151.162 22.4192 152.588 20.9934 152.588 18.6063C152.588 16.2272 151.162 14.8096 149.303 14.8096C147.444 14.8096 146.018 16.2272 146.018 18.6063C146.018 20.9934 147.444 22.4192 149.303 22.4192ZM163.768 12.7241H166V24.4968H163.409L158.631 16.0804V24.4968H156.399V12.7241H158.959L163.768 21.0912V12.7241Z" fill="#FF847C"/>
</g>
<defs>
<clipPath id="clip0_2317_5268">
<rect width="166" height="37" fill="white"/>
</clipPath>
</defs>
</svg>
