<svg width="60" height="86" viewBox="0 0 60 86" fill="none" xmlns="http://www.w3.org/2000/svg">
<path d="M26.3267 0.205476C25.8462 -0.105741 25.2279 -0.0575435 24.7968 0.310133C24.3658 0.676433 24.224 1.28096 24.4457 1.80287L25.3463 3.88913C30.4166 15.6217 33.9213 23.7285 26.1684 34.8125C26.3419 25.3521 22.3236 17.825 14.181 12.3939C13.7321 12.0964 13.1413 12.1088 12.7034 12.4242C12.2683 12.7437 12.0769 13.3014 12.2242 13.8233C14.0722 20.2996 11.3594 24.9458 7.92502 30.8314C4.3956 36.8836 0.00275413 44.4121 0 56.0662C0 56.0662 0 56.0662 0 56.0689V56.0717C0 56.0717 0 56.0717 0 56.0744C0.00550826 72.4312 13.3052 85.7392 29.6606 85.7571C29.6703 85.7598 29.6799 85.7654 29.6923 85.7654C46.0642 85.7654 59.3846 72.4436 59.3846 56.073C59.3846 33.609 47.6451 13.7668 26.3267 0.205476ZM29.713 83.1806C29.7061 83.1806 29.7006 83.1751 29.6923 83.1751C14.7429 83.1751 2.58338 71.017 2.58062 56.0662C2.58062 45.1102 6.60441 38.2139 10.1545 32.13C13.1937 26.9261 15.8803 22.3157 15.3447 16.4686C22.0138 22.0072 24.6013 29.3525 23.2504 38.8267C23.1691 39.3926 23.4707 39.9476 23.9954 40.1831C24.52 40.4254 25.1328 40.2822 25.5102 39.8471C37.0031 26.4386 33.8249 17.1062 28.5548 4.80901C46.812 17.7617 56.804 35.8219 56.804 56.0689C56.804 71.0128 44.6514 83.1682 29.713 83.1806Z" fill="#FF847C"/>
<path d="M42.6023 56.0689C44.0283 56.0689 45.1843 54.3352 45.1843 52.1966C45.1843 50.058 44.0283 48.3243 42.6023 48.3243C41.1763 48.3243 40.0203 50.058 40.0203 52.1966C40.0203 54.3352 41.1763 56.0689 42.6023 56.0689Z" fill="#FF847C"/>
<path d="M18.0725 63.8163C18.0725 64.5296 18.6509 65.108 19.3642 65.108H30.9839V68.9803C30.9839 71.8267 33.2987 74.1443 36.1479 74.1443C38.997 74.1443 41.3119 71.8267 41.3119 68.9803V63.8163C41.3119 63.103 40.7335 62.5246 40.0202 62.5246H19.3642C18.6509 62.5246 18.0725 63.103 18.0725 63.8163ZM33.5645 65.108H38.7285V68.9803C38.7285 70.4056 37.569 71.5623 36.1465 71.5623C34.724 71.5623 33.5645 70.4056 33.5645 68.9803V65.108Z" fill="#FF847C"/>
<path d="M21.9463 52.1966C21.9463 51.4833 21.368 50.9049 20.6547 50.9049H15.4907C14.7773 50.9049 14.199 51.4833 14.199 52.1966C14.199 52.9099 14.7773 53.4883 15.4907 53.4883H20.6547C21.368 53.4883 21.9463 52.9099 21.9463 52.1966Z" fill="#FF847C"/>
</svg>
